HIERARCHY
ROOT Hips
{
	OFFSET 0.000000 100.481300 0.000000
	CHANNELS 6 Xposition Yposition Zposition Xrotation Yrotation Zrotation
	JOINT Spine
	{
		OFFSET -0.279200 12.230698 -2.892100
		CHANNELS 3 Xrotation Yrotation Zrotation
		JOINT Spine1
		{
			OFFSET -0.325700 14.269203 -3.374200
			CHANNELS 3 Xrotation Yrotation Zrotation
			JOINT Spine2
			{
				OFFSET -0.372300 16.307602 -0.352600
				CHANNELS 3 Xrotation Yrotation Zrotation
				JOINT Neck
				{
					OFFSET -0.418800 17.814194 8.416900
					CHANNELS 3 Xrotation Yrotation Zrotation
					JOINT Head
					{
						OFFSET 0.000000 7.031097 3.806800
						CHANNELS 3 Xrotation Yrotation Zrotation
						JOINT HeadTop_End
						{
							OFFSET 0.000000 24.646606 12.978600
							CHANNELS 3 Xrotation Yrotation Zrotation
							End Site
							{
								OFFSET 0.000000 27.854965 0.000000
							}
						}
					}
				}
				JOINT LeftShoulder
				{
					OFFSET 16.952999 14.495407 -7.737500
					CHANNELS 3 Xrotation Yrotation Zrotation
					JOINT LeftArm
					{
						OFFSET 9.308998 -2.777710 0.208600
						CHANNELS 3 Xrotation Yrotation Zrotation
						JOINT LeftForeArm
						{
							OFFSET 29.972298 0.000000 0.000000
							CHANNELS 3 Xrotation Yrotation Zrotation
							JOINT LeftHand
							{
								OFFSET 26.026505 0.000000 0.000000
								CHANNELS 3 Xrotation Yrotation Zrotation
								JOINT LeftHandThumb1
								{
									OFFSET 12.240501 -7.147949 9.207150
									CHANNELS 3 Xrotation Yrotation Zrotation
									JOINT LeftHandThumb2
									{
										OFFSET 4.138618 -2.389435 2.389433
										CHANNELS 3 Xrotation Yrotation Zrotation
										JOINT LeftHandThumb3
										{
											OFFSET 2.726913 -1.574387 1.574386
											CHANNELS 3 Xrotation Yrotation Zrotation
											JOINT LeftHandThumb4
											{
												OFFSET 3.941010 -2.275345 2.275342
												CHANNELS 3 Xrotation Yrotation Zrotation
												End Site
												{
													OFFSET -0.005798 5.087799 0.009903
												}
											}
										}
									}
								}
								JOINT LeftHandIndex1
								{
									OFFSET 24.424698 -1.985611 5.953459
									CHANNELS 3 Xrotation Yrotation Zrotation
									JOINT LeftHandIndex2
									{
										OFFSET 6.426697 0.000000 0.000000
										CHANNELS 3 Xrotation Yrotation Zrotation
										JOINT LeftHandIndex3
										{
											OFFSET 5.337898 0.000000 0.000000
											CHANNELS 3 Xrotation Yrotation Zrotation
											JOINT LeftHandIndex4
											{
												OFFSET 4.409401 0.000000 0.000000
												CHANNELS 3 Xrotation Yrotation Zrotation
												End Site
												{
													OFFSET 0.000000 4.409363 0.014373
												}
											}
										}
									}
								}
								JOINT LeftHandMiddle1
								{
									OFFSET 23.810104 0.000000 0.000000
									CHANNELS 3 Xrotation Yrotation Zrotation
									JOINT LeftHandMiddle2
									{
										OFFSET 7.176498 0.000000 0.000000
										CHANNELS 3 Xrotation Yrotation Zrotation
										JOINT LeftHandMiddle3
										{
											OFFSET 6.774902 0.000000 0.000000
											CHANNELS 3 Xrotation Yrotation Zrotation
											JOINT LeftHandMiddle4
											{
												OFFSET 5.403328 0.000000 0.000000
												CHANNELS 3 Xrotation Yrotation Zrotation
												End Site
												{
													OFFSET -0.027702 5.403244 0.017414
												}
											}
										}
									}
								}
								JOINT LeftHandRing1
								{
									OFFSET 22.908401 -0.839279 -6.020567
									CHANNELS 3 Xrotation Yrotation Zrotation
									JOINT LeftHandRing2
									{
										OFFSET 6.337502 0.000000 0.000000
										CHANNELS 3 Xrotation Yrotation Zrotation
										JOINT LeftHandRing3
										{
											OFFSET 5.779297 0.000000 0.000000
											CHANNELS 3 Xrotation Yrotation Zrotation
											JOINT LeftHandRing4
											{
												OFFSET 4.965698 0.000000 0.000000
												CHANNELS 3 Xrotation Yrotation Zrotation
												End Site
												{
													OFFSET 0.000000 4.965668 0.016186
												}
											}
										}
									}
								}
								JOINT LeftHandPinky1
								{
									OFFSET 20.037003 -1.530319 -10.950146
									CHANNELS 3 Xrotation Yrotation Zrotation
									JOINT LeftHandPinky2
									{
										OFFSET 5.254700 0.000000 0.000000
										CHANNELS 3 Xrotation Yrotation Zrotation
										JOINT LeftHandPinky3
										{
											OFFSET 4.810204 0.000000 0.000000
											CHANNELS 3 Xrotation Yrotation Zrotation
											JOINT LeftHandPinky4
											{
												OFFSET 3.647202 0.000000 0.000000
												CHANNELS 3 Xrotation Yrotation Zrotation
												End Site
												{
													OFFSET 0.000000 3.647186 0.011889
												}
											}
										}
									}
								}
							}
						}
					}
				}
				JOINT RightShoulder
				{
					OFFSET -15.141001 14.495407 -7.737500
					CHANNELS 3 Xrotation Yrotation Zrotation
					JOINT RightArm
					{
						OFFSET -9.308998 -2.777710 0.208500
						CHANNELS 3 Xrotation Yrotation Zrotation
						JOINT RightForeArm
						{
							OFFSET -29.972300 0.000000 0.000000
							CHANNELS 3 Xrotation Yrotation Zrotation
							JOINT RightHand
							{
								OFFSET -26.026505 0.000000 0.000000
								CHANNELS 3 Xrotation Yrotation Zrotation
								JOINT RightHandThumb1
								{
									OFFSET -12.240601 -7.148026 9.207092
									CHANNELS 3 Xrotation Yrotation Zrotation
									JOINT RightHandThumb2
									{
										OFFSET -4.138618 -2.389435 2.389433
										CHANNELS 3 Xrotation Yrotation Zrotation
										JOINT RightHandThumb3
										{
											OFFSET -2.726974 -1.574417 1.574421
											CHANNELS 3 Xrotation Yrotation Zrotation
											JOINT RightHandThumb4
											{
												OFFSET -3.941010 -2.275345 2.275343
												CHANNELS 3 Xrotation Yrotation Zrotation
												End Site
												{
													OFFSET 0.005814 5.087799 0.009927
												}
											}
										}
									}
								}
								JOINT RightHandIndex1
								{
									OFFSET -24.424698 -1.985657 5.953444
									CHANNELS 3 Xrotation Yrotation Zrotation
									JOINT RightHandIndex2
									{
										OFFSET -6.426697 0.000000 0.000000
										CHANNELS 3 Xrotation Yrotation Zrotation
										JOINT RightHandIndex3
										{
											OFFSET -5.337898 0.000000 0.000000
											CHANNELS 3 Xrotation Yrotation Zrotation
											JOINT RightHandIndex4
											{
												OFFSET -4.409401 0.000000 0.000000
												CHANNELS 3 Xrotation Yrotation Zrotation
												End Site
												{
													OFFSET 0.000000 4.409363 0.014408
												}
											}
										}
									}
								}
								JOINT RightHandMiddle1
								{
									OFFSET -23.810097 0.000000 0.000000
									CHANNELS 3 Xrotation Yrotation Zrotation
									JOINT RightHandMiddle2
									{
										OFFSET -7.176498 0.000000 0.000000
										CHANNELS 3 Xrotation Yrotation Zrotation
										JOINT RightHandMiddle3
										{
											OFFSET -6.774902 0.000000 0.000000
											CHANNELS 3 Xrotation Yrotation Zrotation
											JOINT RightHandMiddle4
											{
												OFFSET -5.403328 0.000000 0.000000
												CHANNELS 3 Xrotation Yrotation Zrotation
												End Site
												{
													OFFSET 0.027702 5.403244 0.017457
												}
											}
										}
									}
								}
								JOINT RightHandRing1
								{
									OFFSET -22.908302 -0.839325 -6.020576
									CHANNELS 3 Xrotation Yrotation Zrotation
									JOINT RightHandRing2
									{
										OFFSET -6.337502 0.000000 0.000000
										CHANNELS 3 Xrotation Yrotation Zrotation
										JOINT RightHandRing3
										{
											OFFSET -5.779297 0.000000 0.000000
											CHANNELS 3 Xrotation Yrotation Zrotation
											JOINT RightHandRing4
											{
												OFFSET -4.965698 0.000000 0.000000
												CHANNELS 3 Xrotation Yrotation Zrotation
												End Site
												{
													OFFSET 0.000000 4.965668 0.016226
												}
											}
										}
									}
								}
								JOINT RightHandPinky1
								{
									OFFSET -20.037003 -1.530334 -10.950259
									CHANNELS 3 Xrotation Yrotation Zrotation
									JOINT RightHandPinky2
									{
										OFFSET -5.254700 0.000000 0.000000
										CHANNELS 3 Xrotation Yrotation Zrotation
										JOINT RightHandPinky3
										{
											OFFSET -4.810204 0.000000 0.000000
											CHANNELS 3 Xrotation Yrotation Zrotation
											JOINT RightHandPinky4
											{
												OFFSET -3.647202 0.000000 0.000000
												CHANNELS 3 Xrotation Yrotation Zrotation
												End Site
												{
													OFFSET 0.000000 3.647186 0.011917
												}
											}
										}
									}
								}
							}
						}
					}
				}
			}
		}
	}
	JOINT LeftUpLeg
	{
		OFFSET 15.427100 -6.655098 0.678600
		CHANNELS 3 Xrotation Yrotation Zrotation
		JOINT LeftLeg
		{
			OFFSET 4.081073 -39.591068 13.024000
			CHANNELS 3 Xrotation Yrotation Zrotation
			JOINT LeftFoot
			{
				OFFSET -4.081074 -37.707932 -15.979700
				CHANNELS 3 Xrotation Yrotation Zrotation
				JOINT LeftToeBase
				{
					OFFSET 5.346399 -15.068900 20.645000
					CHANNELS 3 Xrotation Yrotation Zrotation
					JOINT LeftToe_End
					{
						OFFSET 2.754700 0.931300 11.300900
						CHANNELS 3 Xrotation Yrotation Zrotation
						End Site
						{
							OFFSET 0.000000 11.669021 0.000000
						}
					}
				}
			}
		}
	}
	JOINT RightUpLeg
	{
		OFFSET -15.569500 -6.655098 0.678600
		CHANNELS 3 Xrotation Yrotation Zrotation
		JOINT RightLeg
		{
			OFFSET -4.081825 -39.591045 13.023800
			CHANNELS 3 Xrotation Yrotation Zrotation
			JOINT RightFoot
			{
				OFFSET 4.081824 -37.707954 -15.979600
				CHANNELS 3 Xrotation Yrotation Zrotation
				JOINT RightToeBase
				{
					OFFSET -5.346400 -15.068900 20.645000
					CHANNELS 3 Xrotation Yrotation Zrotation
					JOINT RightToe_End
					{
						OFFSET -2.754700 0.931300 11.300900
						CHANNELS 3 Xrotation Yrotation Zrotation
						End Site
						{
							OFFSET 0.000000 11.669021 0.000000
						}
					}
				}
			}
		}
	}
}
MOTION
Frames: 6
Frame Time: 0.033333
0.128366 72.356277 1.262088 16.104119 -58.462895 19.644433 3.013506 -0.443040 -2.983281 7.803554 0.230174 -0.971184 7.806000 0.081980 -0.958675 0.336493 7.775726 -7.426433 -6.204358 35.767495 -16.185906 0.000002 -0.000001 0.000000 1.051381 -1.176520 -10.531357 -56.940196 -13.503133 -27.487828 0.000002 -36.272334 0.000010 -26.451581 5.458057 -3.026400 8.808541 16.047036 -3.522854 9.281899 29.460378 1.375869 2.069964 12.309492 3.416060 0.000001 -0.000003 -0.000000 0.166711 1.509020 -12.608627 0.166758 1.508993 -12.608609 0.041796 0.759098 -6.303218 -0.000002 0.000001 0.000000 0.166304 1.507131 -12.592619 0.167154 1.510873 -12.624626 0.041783 0.759096 -6.303215 -0.000000 0.000002 0.000004 0.166711 1.509020 -12.608627 0.166759 1.508993 -12.608607 0.041795 0.759096 -6.303212 -0.000000 0.000000 -0.000002 1.037364 5.469125 -12.151220 0.162232 -2.546796 -13.107098 0.041792 0.759105 -6.303213 -0.000001 0.000000 -0.000001 2.821494 12.055367 10.894889 -51.815615 55.358492 66.762722 0.000207 94.017745 -0.000140 -6.752970 1.185786 -9.837187 16.092843 -1.956974 7.389337 38.850461 -40.011006 9.787806 13.450192 -17.209632 -0.499296 0.000001 0.000001 0.000000 7.607984 -6.917003 95.461811 7.607965 -6.917002 95.461818 2.260417 -5.134301 47.500667 0.000002 0.000001 -0.000001 7.607986 -6.917000 95.461811 7.607968 -6.917003 95.461818 2.260399 -5.134312 47.500656 0.000000 0.000000 0.000000 7.607991 -6.916993 95.461818 7.607968 -6.917003 95.461818 2.260410 -5.134299 47.500667 0.000001 0.000001 0.000000 7.607986 -6.917001 95.461811 7.607978 -6.917010 95.461818 2.260411 -5.134296 47.500667 -0.000001 0.000002 -0.000002 -61.126259 12.592634 39.654118 39.946614 3.178100 -0.779108 17.562064 -1.793430 -17.166716 0.000003 -0.000002 -0.000003 -0.000000 -0.000002 0.000000 -38.596538 6.156967 -20.909869 68.738081 1.757087 1.443927 -36.226200 -3.696184 10.299725 -0.005316 0.000045 -0.000003 -0.000000 0.000001 0.000000 
-0.006388 72.047195 0.428884 16.482992 -57.982302 20.263896 2.745467 -0.476333 -3.265648 7.804131 0.096526 -1.137398 7.804178 -0.085610 -1.123646 0.146922 7.827603 -7.576866 -6.209973 35.767419 -16.298375 0.000002 0.000000 -0.000000 1.055213 -1.116967 -10.539922 -56.725606 -13.639365 -26.806027 0.000024 -36.099937 0.000020 -27.840703 6.032491 -3.500574 8.808544 16.047034 -3.522854 9.281898 29.460371 1.375870 2.069961 12.309495 3.416057 -0.000004 -0.000000 -0.000003 0.166710 1.509018 -12.608631 0.166757 1.508991 -12.608615 0.041796 0.759096 -6.303214 0.000001 0.000001 0.000001 0.166305 1.507129 -12.592616 0.167152 1.510872 -12.624625 0.041788 0.759100 -6.303220 0.000000 0.000000 -0.000001 0.166710 1.509018 -12.608633 0.166760 1.508991 -12.608607 0.041796 0.759097 -6.303213 0.000000 -0.000002 0.000002 1.037363 5.469123 -12.151222 0.162229 -2.546795 -13.107103 0.041794 0.759107 -6.303216 0.000000 0.000001 -0.000001 3.070938 15.297629 10.567017 -49.423905 52.969340 63.200929 0.001261 94.036610 -0.001263 -6.681306 1.198612 -10.047821 16.092848 -1.956975 7.389335 38.850464 -40.010999 9.787807 13.450192 -17.209628 -0.499293 0.000000 0.000001 -0.000000 7.607987 -6.917006 95.461811 7.607967 -6.917000 95.461818 2.260415 -5.134299 47.500667 0.000002 0.000002 -0.000004 7.607987 -6.917005 95.461811 7.607973 -6.917004 95.461818 2.260399 -5.134311 47.500656 0.000003 0.000001 -0.000001 7.607991 -6.916997 95.461818 7.607962 -6.917002 95.461818 2.260413 -5.134298 47.500670 -0.000003 -0.000000 -0.000001 7.607987 -6.917006 95.461811 7.607979 -6.917009 95.461818 2.260411 -5.134296 47.500670 0.000003 -0.000000 -0.000000 -61.818314 12.678898 39.629693 39.154633 3.093978 -0.757556 19.001183 -1.976196 -17.004862 0.000002 0.000010 -0.000006 0.000000 0.000002 -0.000000 -40.027275 5.471734 -20.688926 70.007165 1.312680 1.427014 -36.158530 -3.191164 8.638702 -0.005316 0.000046 -0.000003 -0.000000 0.000000 0.000000 
-0.080179 71.855568 -0.379644 16.440091 -57.704020 20.502642 2.765329 -0.545021 -3.397661 7.988653 -0.044671 -1.192351 7.985665 -0.245564 -1.174562 -0.058656 7.886471 -7.741128 -6.230752 35.783378 -16.421337 -0.000003 0.000000 -0.000000 1.059459 -1.000767 -10.587346 -56.571732 -13.774779 -26.215113 -0.000002 -35.853415 0.000009 -29.224447 6.615443 -3.961739 8.808540 16.047033 -3.522855 9.281894 29.460378 1.375869 2.069962 12.309496 3.416052 0.000001 -0.000001 -0.000000 0.166708 1.509018 -12.608630 0.166761 1.508991 -12.608610 0.041795 0.759100 -6.303213 0.000000 -0.000000 0.000001 0.166306 1.507130 -12.592619 0.167157 1.510872 -12.624621 0.041786 0.759098 -6.303217 -0.000003 -0.000000 -0.000003 0.166708 1.509018 -12.608632 0.166759 1.508992 -12.608608 0.041798 0.759099 -6.303207 -0.000002 0.000000 0.000005 1.037362 5.469123 -12.151222 0.162231 -2.546793 -13.107107 0.041792 0.759105 -6.303210 -0.000001 -0.000001 0.000001 3.148175 16.324313 10.348362 -48.710768 52.034331 62.375077 0.002108 94.041412 -0.002134 -6.609752 1.210183 -10.252050 16.092843 -1.956975 7.389337 38.850468 -40.011006 9.787805 13.450191 -17.209633 -0.499296 -0.000000 -0.000001 -0.000001 7.607985 -6.917002 95.461811 7.607963 -6.917002 95.461818 2.260417 -5.134299 47.500663 -0.000002 0.000001 0.000001 7.607985 -6.917001 95.461811 7.607970 -6.917001 95.461818 2.260399 -5.134308 47.500656 -0.000001 -0.000003 0.000002 7.607989 -6.916995 95.461818 7.607963 -6.917002 95.461818 2.260415 -5.134301 47.500667 -0.000000 0.000001 -0.000000 7.607985 -6.917002 95.461811 7.607977 -6.917006 95.461818 2.260412 -5.134295 47.500667 0.000001 -0.000001 -0.000002 -62.036272 12.836463 39.527428 38.211521 2.948875 -0.743115 20.153687 -2.101118 -16.664354 0.000001 0.000014 0.000004 -0.000000 0.000002 0.000000 -40.931299 5.101189 -20.406633 70.889256 0.973531 1.402077 -36.111265 -2.890495 7.660594 -0.005316 0.000048 -0.000002 -0.000000 -0.000002 0.000000 
-0.097301 71.781204 -1.126759 16.063765 -57.610378 20.338084 3.009001 -0.647018 -3.369465 8.304585 -0.190353 -1.125497 8.298699 -0.392800 -1.105113 -0.281334 7.950963 -7.908258 -6.273659 35.819062 -16.550015 0.000000 -0.000001 0.000001 1.072167 -0.850531 -10.679345 -56.544732 -13.864281 -25.801876 0.000005 -35.518336 0.000013 -30.498557 7.151205 -4.380565 8.808542 16.047033 -3.522851 9.281896 29.460378 1.375870 2.069966 12.309492 3.416055 -0.000001 0.000002 -0.000000 0.166709 1.509019 -12.608632 0.166755 1.508993 -12.608604 0.041797 0.759100 -6.303215 -0.000001 0.000001 -0.000001 0.166304 1.507131 -12.592625 0.167157 1.510875 -12.624620 0.041783 0.759096 -6.303213 -0.000000 0.000000 0.000002 0.166709 1.509019 -12.608632 0.166755 1.508992 -12.608606 0.041798 0.759102 -6.303214 -0.000000 0.000001 0.000002 1.037362 5.469124 -12.151223 0.162232 -2.546792 -13.107108 0.041794 0.759104 -6.303213 -0.000002 -0.000002 -0.000001 3.275689 16.265469 10.258681 -48.760338 51.989037 62.596846 0.000006 94.019009 -0.000000 -6.553098 1.221652 -10.436268 16.092839 -1.956974 7.389337 38.850461 -40.011006 9.787808 13.450193 -17.209633 -0.499297 0.000001 -0.000002 0.000000 7.607984 -6.917003 95.461811 7.607968 -6.917002 95.461818 2.260415 -5.134301 47.500667 -0.000004 0.000003 -0.000002 7.607985 -6.917002 95.461811 7.607972 -6.917005 95.461818 2.260401 -5.134311 47.500656 -0.000003 -0.000000 -0.000001 7.607987 -6.916995 95.461825 7.607965 -6.917007 95.461818 2.260411 -5.134298 47.500667 0.000003 0.000002 -0.000001 7.607985 -6.917003 95.461811 7.607980 -6.917011 95.461818 2.260414 -5.134293 47.500667 0.000001 -0.000001 0.000001 -61.805316 12.860509 39.365911 37.221157 2.831145 -0.730099 20.992470 -2.160815 -16.202841 0.000011 0.000007 -0.000000 0.000000 -0.000001 0.000000 -41.244920 5.027689 -19.976613 71.339236 0.657301 1.383790 -36.211792 -2.812577 7.400396 -0.005316 0.000045 -0.000002 0.000000 0.000000 -0.000000 
-0.079031 71.860077 -1.797852 15.390737 -57.750971 19.827039 3.459686 -0.777500 -3.207287 8.729822 -0.329861 -0.953337 8.722039 -0.518129 -0.933031 -0.519689 8.017873 -8.050011 -6.352875 35.888054 -16.666290 -0.000001 -0.000000 -0.000000 1.088749 -0.669316 -10.807343 -56.676005 -13.867713 -25.643996 0.000019 -35.085674 0.000024 -31.547886 7.577056 -4.726413 8.808542 16.047034 -3.522854 9.281891 29.460385 1.375864 2.069964 12.309489 3.416056 0.000003 0.000003 -0.000002 0.166710 1.509019 -12.608633 0.166759 1.508990 -12.608609 0.041797 0.759097 -6.303215 -0.000001 -0.000001 -0.000001 0.166304 1.507131 -12.592623 0.167159 1.510875 -12.624627 0.041787 0.759096 -6.303210 -0.000001 0.000001 -0.000002 0.166710 1.509019 -12.608632 0.166757 1.508991 -12.608608 0.041796 0.759100 -6.303210 0.000000 0.000002 0.000001 1.037363 5.469124 -12.151226 0.162231 -2.546796 -13.107103 0.041794 0.759106 -6.303210 0.000000 0.000000 0.000001 3.311809 15.833721 10.238580 -48.988347 52.290825 63.094132 -0.001305 93.959245 0.001357 -6.526559 1.235480 -10.594443 16.092843 -1.956979 7.389336 38.850468 -40.011002 9.787805 13.450195 -17.209630 -0.499296 -0.000000 -0.000003 -0.000001 7.607985 -6.917006 95.461811 7.607969 -6.917000 95.461818 2.260414 -5.134302 47.500667 -0.000001 0.000001 -0.000002 7.607985 -6.917006 95.461811 7.607971 -6.917003 95.461818 2.260403 -5.134310 47.500660 -0.000004 0.000000 0.000001 7.607987 -6.916998 95.461818 7.607966 -6.917004 95.461818 2.260415 -5.134298 47.500667 0.000001 0.000003 -0.000002 7.607985 -6.917006 95.461811 7.607979 -6.917012 95.461818 2.260414 -5.134294 47.500670 -0.000002 -0.000001 -0.000001 -61.234845 12.926987 39.320685 36.130622 2.680169 -0.728334 21.902620 -2.209163 -15.790258 -0.000004 -0.000004 -0.000006 0.000000 -0.000001 -0.000000 -41.284365 4.869863 -19.419230 71.476297 0.353701 1.347656 -36.060103 -2.659165 7.027196 -0.005317 0.000047 -0.000002 -0.000000 -0.000001 0.000000 
-0.058487 72.144363 -2.397671 14.967014 -57.921794 19.518341 3.875920 -0.897867 -3.085244 9.105988 -0.448279 -0.789062 9.096851 -0.624882 -0.769825 -0.765977 8.082839 -8.127369 -6.486467 36.012551 -16.738989 0.000001 0.000001 0.000000 1.101224 -0.484339 -10.941693 -56.935026 -13.704600 -25.744364 -0.000012 -34.600693 -0.000010 -32.272391 7.847034 -4.975376 8.808539 16.047034 -3.522856 9.281896 29.460378 1.375870 2.069962 12.309497 3.416051 -0.000004 -0.000002 -0.000000 0.166708 1.509017 -12.608633 0.166760 1.508991 -12.608609 0.041797 0.759099 -6.303216 0.000000 0.000000 -0.000003 0.166302 1.507129 -12.592618 0.167155 1.510873 -12.624620 0.041784 0.759096 -6.303215 0.000000 0.000003 0.000001 0.166708 1.509017 -12.608632 0.166758 1.508991 -12.608610 0.041795 0.759099 -6.303212 0.000001 -0.000000 0.000002 1.037361 5.469122 -12.151223 0.162234 -2.546793 -13.107107 0.041790 0.759104 -6.303219 -0.000001 -0.000002 0.000001 3.458000 15.452651 10.247545 -49.350224 52.672687 63.479000 0.001515 93.860521 -0.001564 -6.538175 1.253567 -10.730409 16.092838 -1.956978 7.389337 38.850464 -40.011006 9.787807 13.450195 -17.209630 -0.499296 -0.000002 -0.000002 -0.000002 7.607984 -6.917002 95.461811 7.607970 -6.917002 95.461818 2.260414 -5.134302 47.500663 0.000003 0.000001 -0.000000 7.607984 -6.917001 95.461811 7.607974 -6.917004 95.461818 2.260402 -5.134307 47.500653 -0.000001 -0.000001 -0.000001 7.607985 -6.916997 95.461818 7.607966 -6.917002 95.461818 2.260416 -5.134301 47.500667 0.000001 -0.000002 0.000000 7.607984 -6.917002 95.461811 7.607983 -6.917015 95.461818 2.260412 -5.134298 47.500667 -0.000002 0.000000 0.000001 -60.491946 13.065638 39.176104 34.721062 2.457433 -0.733077 22.939651 -2.268244 -15.492237 0.000006 0.000009 0.000003 0.000000 -0.000002 0.000000 -41.314660 4.585108 -18.895626 71.209496 0.182342 1.288624 -35.723293 -2.500587 6.690227 -0.005316 0.000044 -0.000002 -0.000000 -0.000002 -0.000000 
